<svg width="59" height="58" viewBox="0 0 59 58" fill="none" xmlns="http://www.w3.org/2000/svg">
<path d="M52.426 35.6067V14.4807L27.2305 0L2.03516 14.4807V43.4422L27.2305 57.923L33.9331 54.0707C36.3137 56.4935 39.6318 58 43.2971 58C50.5226 58 56.401 52.1481 56.401 44.9553C56.401 41.2926 54.8762 37.9783 52.426 35.6067ZM27.2305 3.92927L47.2984 15.463L38.9737 20.2476L18.9059 8.71382L27.2305 3.92927ZM25.5213 53.0112L5.45359 41.4775V18.4101L25.5213 29.9439V53.0112ZM7.16281 15.463L15.4875 10.6785L35.5553 22.2122L27.2305 26.9967L7.16281 15.463ZM28.9398 53.0112V29.9437L49.0075 18.41V33.216C47.2805 32.3801 45.3429 31.9108 43.2971 31.9108C36.0716 31.9108 30.1931 37.7626 30.1931 44.9554C30.1931 47.2688 30.8019 49.443 31.8673 51.3288L28.9398 53.0112ZM43.2971 54.597C37.9565 54.597 33.6115 50.2717 33.6115 44.9553C33.6115 39.6389 37.9565 35.3136 43.2971 35.3136C48.6376 35.3136 52.9826 39.6389 52.9826 44.9553C52.9826 50.2717 48.6378 54.597 43.2971 54.597Z" fill="#66C3D0"/>
<path d="M47.3447 40.0123L41.7478 45.6147L39.2408 43.1442L36.8359 45.5625L41.7667 50.4215L49.7685 42.4119L47.3447 40.0123Z" fill="#66C3D0"/>
</svg>
