<svg width="53" height="52" viewBox="0 0 53 52" fill="none" xmlns="http://www.w3.org/2000/svg">
<g clip-path="url(#clip0)">
<path d="M51.5386 10.1504C50.8587 9.36993 49.9066 8.89321 48.8575 8.80812L11.9069 5.81186C10.8577 5.72677 9.83757 6.04355 9.0338 6.70369C8.23331 7.36124 7.74314 8.28114 7.65275 9.29498L6.90934 16.0682H3.94095C1.76792 16.0682 0 17.785 0 19.8953V42.358C0 44.4683 1.76792 46.1852 3.94095 46.1852H41.0203C43.1934 46.1852 44.9614 44.4683 44.9614 42.358V38.7141L46.2771 38.8208C46.3881 38.8298 46.4985 38.8342 46.6079 38.8342C48.6338 38.8342 50.3608 37.3206 50.5324 35.3253L52.4571 12.9406C52.5446 11.9218 52.2184 10.931 51.5386 10.1504ZM3.94095 18.0586H41.0203C42.0632 18.0586 42.9117 18.8826 42.9117 19.8953V21.9421H2.04964V19.8953C2.04964 18.8826 2.89809 18.0586 3.94095 18.0586ZM2.04964 23.9326H42.9117V28.0617H2.04964V23.9326ZM41.0203 44.1947H3.94095C2.89809 44.1947 2.04964 43.3707 2.04964 42.358V30.0522H42.9117V42.358C42.9117 43.3707 42.0632 44.1947 41.0203 44.1947ZM50.4145 12.7749L48.4898 35.1596C48.403 36.1689 47.4867 36.9218 46.4477 36.8372L44.9614 36.7167V19.8953C44.9614 17.785 43.1934 16.0682 41.0203 16.0682H8.97067L9.69204 9.49562C9.69286 9.48806 9.69358 9.4806 9.69419 9.47293C9.781 8.46367 10.6968 7.71087 11.7364 7.79546L48.6871 10.7917C49.1906 10.8325 49.6476 11.0613 49.9738 11.4359C50.3 11.8105 50.4566 12.286 50.4145 12.7749Z" fill="#66C3D0"/>
<path d="M38.6223 33.0118H28.7592C28.1932 33.0118 27.7344 33.4573 27.7344 34.007V40.256C27.7344 40.8057 28.1932 41.2513 28.7592 41.2513H38.6223C39.1883 41.2513 39.6471 40.8057 39.6471 40.256V34.007C39.6471 33.4573 39.1883 33.0118 38.6223 33.0118ZM37.5975 39.2608H29.784V35.0023H37.5975V39.2608Z" fill="#66C3D0"/>
</g>
<defs>
<clipPath id="clip0">
<rect width="52.471" height="50.9562" fill="white" transform="translate(0 0.512695)"/>
</clipPath>
</defs>
</svg>
