<svg width="58" height="58" viewBox="0 0 58 58" fill="none" xmlns="http://www.w3.org/2000/svg">
<g clip-path="url(#clip0)">
<path d="M43.8046 34.4832C39.7733 34.4832 36.4937 37.7628 36.4937 41.7941C36.4937 45.8254 39.7733 49.105 43.8046 49.105C47.8366 49.105 51.1155 45.8254 51.1155 41.7941C51.1155 37.7628 47.8359 34.4832 43.8046 34.4832ZM43.8046 45.4496C41.7886 45.4496 40.1491 43.8101 40.1491 41.7941C40.1491 39.7781 41.7886 38.1386 43.8046 38.1386C45.8205 38.1386 47.4601 39.7781 47.4601 41.7941C47.4601 43.8102 45.8205 45.4496 43.8046 45.4496Z" fill="#66C3D0"/>
<path d="M18.8256 34.4832C14.7943 34.4832 11.5146 37.7628 11.5146 41.7941C11.5146 45.8254 14.7943 49.105 18.8256 49.105C22.8569 49.105 26.1365 45.8254 26.1365 41.7941C26.1365 37.7628 22.8569 34.4832 18.8256 34.4832ZM18.8256 45.4496C16.8096 45.4496 15.1701 43.8101 15.1701 41.7941C15.1701 39.7781 16.8096 38.1386 18.8256 38.1386C20.841 38.1386 22.4811 39.7781 22.4811 41.7941C22.4811 43.8102 20.8415 45.4496 18.8256 45.4496Z" fill="#66C3D0"/>
<path d="M48.7277 13.5569C48.417 12.9398 47.7852 12.5504 47.0943 12.5504H37.4683V16.2059H45.9672L50.9441 26.1049L54.2109 24.4623L48.7277 13.5569Z" fill="#66C3D0"/>
<path d="M38.3215 40.0273H24.4917V43.6828H38.3215V40.0273Z" fill="#66C3D0"/>
<path d="M13.3424 40.0273H7.00639C5.99683 40.0273 5.17871 40.8456 5.17871 41.855C5.17871 42.8646 5.99694 43.6827 7.00639 43.6827H13.3426C14.3521 43.6827 15.1702 42.8645 15.1702 41.855C15.1702 40.8455 14.352 40.0273 13.3424 40.0273Z" fill="#66C3D0"/>
<path d="M57.6163 28.8538L54.0212 24.2236C53.6758 23.7776 53.1427 23.5168 52.5779 23.5168H39.2963V10.7227C39.2963 9.71314 38.4781 8.89502 37.4686 8.89502H7.00639C5.99683 8.89502 5.17871 9.71325 5.17871 10.7227C5.17871 11.7321 5.99694 12.5504 7.00639 12.5504H35.6408V25.3445C35.6408 26.354 36.4591 27.1721 37.4685 27.1721H51.6828L54.3446 30.6009V40.0272H49.2878C48.2783 40.0272 47.4602 40.8454 47.4602 41.8549C47.4602 42.8644 48.2784 43.6825 49.2878 43.6825H56.1723C57.1818 43.6825 58 42.8643 58.0001 41.8549V29.9748C58.0001 29.5691 57.8648 29.1743 57.6163 28.8538Z" fill="#66C3D0"/>
<path d="M13.2207 30.7668H4.81303C3.80347 30.7668 2.98535 31.5851 2.98535 32.5945C2.98535 33.6041 3.80358 34.4222 4.81303 34.4222H13.2205C14.2301 34.4222 15.0482 33.604 15.0482 32.5945C15.0483 31.5851 14.2301 30.7668 13.2207 30.7668Z" fill="#66C3D0"/>
<path d="M17.4244 23.5778H1.82768C0.818231 23.5778 0 24.396 0 25.4056C0 26.4151 0.818231 27.2332 1.82768 27.2332H17.4244C18.4339 27.2332 19.252 26.415 19.252 25.4056C19.252 24.3961 18.4339 23.5778 17.4244 23.5778Z" fill="#66C3D0"/>
<path d="M20.4097 16.3887H4.81303C3.80347 16.3887 2.98535 17.2069 2.98535 18.2164C2.98535 19.2259 3.80358 20.044 4.81303 20.044H20.4097C21.4193 20.044 22.2374 19.2258 22.2374 18.2164C22.2375 17.2069 21.4193 16.3887 20.4097 16.3887Z" fill="#66C3D0"/>
</g>
<defs>
<clipPath id="clip0">
<rect width="58" height="58" fill="white"/>
</clipPath>
</defs>
</svg>
