<svg width="44" height="44" viewBox="0 0 44 44" fill="none" xmlns="http://www.w3.org/2000/svg">
<path d="M34.4693 3.33876L29.9651 0.743187L25.4609 3.33876L20.9567 0.743187L16.4525 3.33867L10.6582 0V34.5992H3.73682V39.2493C3.73682 41.8689 5.86798 44 8.48761 44H35.5128C38.1324 44 40.2636 41.8689 40.2636 39.2493V0L34.4693 3.33876ZM8.48761 41.42C7.29068 41.42 6.31683 40.4463 6.31683 39.2493V37.1792H30.762V39.2493C30.762 40.0308 30.9519 40.769 31.2875 41.42H8.48761ZM35.5127 41.42C34.3159 41.42 33.342 40.4463 33.342 39.2493V34.5992H13.2382V4.46428L16.4524 6.31632L20.9566 3.72101L25.4609 6.31632L29.9651 3.72092L34.4694 6.31632L37.6836 4.46428V39.2493C37.6835 40.4463 36.7097 41.42 35.5127 41.42Z" fill="#66C3D0"/>
<path d="M35.1032 11.6437H15.8184V14.2237H35.1032V11.6437Z" fill="#66C3D0"/>
<path d="M35.1032 16.5638H15.8184V19.1438H35.1032V16.5638Z" fill="#66C3D0"/>
<path d="M25.4608 21.4839H15.8184V24.0639H25.4608V21.4839Z" fill="#66C3D0"/>
</svg>
