<svg width="54" height="54" viewBox="0 0 54 54" fill="none" xmlns="http://www.w3.org/2000/svg">
<g clip-path="url(#clip0)">
<path d="M38.365 29.1021H31.0274C29.0193 29.1021 27.3862 30.7351 27.3862 32.7432V38.3705C27.3862 40.3787 29.0193 42.0117 31.0274 42.0117H38.365C40.3732 42.0117 42.0062 40.3787 42.0062 38.3705V32.7432C42.0062 30.7351 40.3732 29.1021 38.365 29.1021ZM39.358 38.3705C39.358 38.9222 38.9056 39.3636 38.365 39.3636H31.0274C30.4757 39.3636 30.0344 38.9112 30.0344 38.3705V32.7432C30.0344 32.1915 30.4868 31.7502 31.0274 31.7502H38.365C38.9167 31.7502 39.358 32.2026 39.358 32.7432V38.3705Z" fill="#66C3D0"/>
<path d="M54 18.8735C54 18.6418 53.9448 18.4211 53.8235 18.2225L45.7908 4.09909C45.5591 3.69084 45.1177 3.42603 44.6432 3.42603H9.34573C8.87127 3.42603 8.42991 3.67981 8.1982 4.09909L0.176543 18.2225C0.0662035 18.4211 0 18.6418 0 18.8735C0 22.0402 1.90887 24.7546 4.63425 25.9573V49.2499C4.63425 49.9781 5.23008 50.574 5.95832 50.574H13.2738C13.2848 50.574 13.2959 50.574 13.3069 50.574H23.5685C23.5795 50.574 23.5905 50.574 23.6016 50.574H48.0307C48.7589 50.574 49.3547 49.9781 49.3547 49.2499V26.1228C49.3547 26.0676 49.3547 26.0235 49.3437 25.9794C52.0801 24.7767 54 22.0513 54 18.8735ZM10.1181 6.0852H43.8709L50.1492 17.1302H3.85084L10.1181 6.0852ZM38.4311 19.7673C38.0119 22.1506 35.9264 23.9601 33.4217 23.9601C30.917 23.9601 28.8316 22.1506 28.4123 19.7673H38.4311ZM25.5987 19.7673C25.1794 22.1506 23.094 23.9601 20.5893 23.9601C18.0846 23.9601 15.9992 22.1506 15.5689 19.7673H25.5987ZM2.73641 19.7673H12.7662C12.347 22.1506 10.2505 23.9601 7.74581 23.9601C5.24111 23.9712 3.1557 22.1506 2.73641 19.7673ZM22.2444 47.9258H14.631V33.6369C14.631 32.5997 15.4696 31.7501 16.5178 31.7501H20.3686C21.4058 31.7501 22.2554 32.5887 22.2554 33.6369V47.9258H22.2444ZM46.7066 47.9258H24.8925V33.6369C24.8925 31.1432 22.8623 29.102 20.3576 29.102H16.5067C14.0131 29.102 11.9718 31.1322 11.9718 33.6369V47.9369H7.28239V26.6083C7.43686 26.6193 7.59134 26.6193 7.74581 26.6193C10.416 26.6193 12.7773 25.2621 14.1676 23.1988C15.5578 25.2621 17.9191 26.6193 20.5893 26.6193C23.2595 26.6193 25.6097 25.2621 27.011 23.1988C28.4013 25.2621 30.7626 26.6193 33.4217 26.6193C36.0919 26.6193 38.4422 25.2621 39.8325 23.1988C41.2227 25.2621 43.584 26.6193 46.2542 26.6193C46.4087 26.6193 46.5521 26.6083 46.7066 26.6083V47.9258ZM46.2542 23.9712C43.7495 23.9712 41.6641 22.1616 41.2448 19.7783H51.2746C50.8443 22.1506 48.7589 23.9712 46.2542 23.9712Z" fill="#66C3D0"/>
</g>
<defs>
<clipPath id="clip0">
<rect width="54" height="54" fill="white"/>
</clipPath>
</defs>
</svg>
