<svg width="53" height="52" viewBox="0 0 53 52" fill="none" xmlns="http://www.w3.org/2000/svg">
<g clip-path="url(#clip0)">
<path d="M36.9113 9.7644H16.0884C15.425 9.7644 14.8872 10.3024 14.8872 10.9662V15.7837C14.8872 16.4475 15.425 16.9855 16.0884 16.9855H36.9112C37.5745 16.9855 38.1123 16.4475 38.1123 15.7837V10.9662C38.1124 10.3024 37.5746 9.7644 36.9113 9.7644ZM35.7101 14.5819H17.2896V12.168H35.71V14.5819H35.7101Z" fill="#66C3D0"/>
<path d="M42.8582 30.4593C42.879 30.3702 42.8907 30.2771 42.8907 30.1855V6.20181C42.8907 5.53804 42.3529 5 41.6895 5H11.3101C10.6467 5 10.1089 5.53804 10.1089 6.20181V30.1855C10.1089 30.3261 10.1347 30.4705 10.1835 30.6025L13.8432 40.502C14.0176 40.9737 14.4671 41.2868 14.9697 41.2868H17.2521V44.7982C17.2521 45.462 17.7899 46 18.4533 46H34.5463C35.2097 46 35.7475 45.462 35.7475 44.7982V41.2868H38.0299C38.5325 41.2868 38.9821 40.9737 39.1564 40.502L42.8161 30.6025C42.8333 30.5561 42.8469 30.5074 42.8582 30.4593ZM12.5112 7.40363H40.4884V28.9837H12.5112V7.40363ZM19.6545 43.5964V36.1624H28.5405V43.5964H19.6545ZM33.3452 43.5964H30.9428V36.1624H33.3452V43.5964ZM37.1935 38.8832H35.7475V34.9606C35.7475 34.2968 35.2097 33.7588 34.5463 33.7588H18.4533C17.79 33.7588 17.2522 34.2968 17.2522 34.9606V38.8832H15.8062L13.0351 31.3873H39.9646L37.1935 38.8832Z" fill="#66C3D0"/>
<path d="M36.8707 19.3892H34.1113C33.448 19.3892 32.9102 19.9272 32.9102 20.591C32.9102 21.2547 33.448 21.7928 34.1113 21.7928H36.8707C37.5341 21.7928 38.0719 21.2547 38.0719 20.591C38.0719 19.9272 37.5341 19.3892 36.8707 19.3892Z" fill="#66C3D0"/>
<path d="M36.8707 24.1964H34.1113C33.448 24.1964 32.9102 24.7345 32.9102 25.3982C32.9102 26.062 33.448 26.6 34.1113 26.6H36.8707C37.5341 26.6 38.0719 26.062 38.0719 25.3982C38.0719 24.7345 37.5341 24.1964 36.8707 24.1964Z" fill="#66C3D0"/>
<path d="M27.9201 24.1964H25.1606C24.4973 24.1964 23.9595 24.7345 23.9595 25.3982C23.9595 26.062 24.4973 26.6 25.1606 26.6H27.9201C28.5835 26.6 29.1213 26.062 29.1213 25.3982C29.1213 24.7345 28.5835 24.1964 27.9201 24.1964Z" fill="#66C3D0"/>
<path d="M27.9201 19.3892H25.1606C24.4973 19.3892 23.9595 19.9272 23.9595 20.591C23.9595 21.2547 24.4973 21.7928 25.1606 21.7928H27.9201C28.5835 21.7928 29.1213 21.2547 29.1213 20.591C29.1213 19.9272 28.5835 19.3892 27.9201 19.3892Z" fill="#66C3D0"/>
<path d="M18.8884 24.1964H16.1289C15.4655 24.1964 14.9277 24.7345 14.9277 25.3982C14.9277 26.062 15.4655 26.6 16.1289 26.6H18.8884C19.5518 26.6 20.0896 26.062 20.0896 25.3982C20.0896 24.7345 19.5518 24.1964 18.8884 24.1964Z" fill="#66C3D0"/>
<path d="M18.8884 19.3892H16.1289C15.4655 19.3892 14.9277 19.9272 14.9277 20.591C14.9277 21.2547 15.4655 21.7928 16.1289 21.7928H18.8884C19.5518 21.7928 20.0896 21.2547 20.0896 20.591C20.0896 19.9272 19.5518 19.3892 18.8884 19.3892Z" fill="#66C3D0"/>
</g>
<defs>
<clipPath id="clip0">
<rect width="41" height="41" fill="white" transform="translate(6 5)"/>
</clipPath>
</defs>
</svg>
