<svg width="42" height="40" viewBox="0 0 42 40" fill="none" xmlns="http://www.w3.org/2000/svg">
<g clip-path="url(#clip0)">
<path d="M40.0913 20.1678V14.5458C40.0913 12.6395 38.5387 11.0892 36.5771 10.9388L31.0951 1.81965C30.5871 0.976257 29.7667 0.373454 28.7852 0.123146C27.8082 -0.125458 26.7866 0.00510802 25.9123 0.489788L7.11968 10.9095H3.81913C1.7134 10.9095 0.000976562 12.5403 0.000976562 14.5458V36.3637C0.000976562 38.3691 1.71331 40 3.81913 40H36.2732C38.3789 40 40.0913 38.3692 40.0913 36.3637V30.7417C41.2 30.3652 42.0004 29.3656 42.0004 28.182V22.7275C42.0004 21.5439 41.2 20.5443 40.0913 20.1678ZM34.3588 10.9095H26.0391L32.2789 7.44967L34.3588 10.9095ZM31.3304 5.87189L22.2449 10.9095H18.4763L30.3881 4.3045L31.3304 5.87189ZM26.8733 2.0611C27.3049 1.8205 27.8091 1.75658 28.2911 1.87914C28.7786 2.0034 29.1851 2.30348 29.4377 2.72339L29.4397 2.72671L14.6823 10.9095H10.9139L26.8733 2.0611ZM38.1822 36.3637C38.1822 37.3659 37.3255 38.1818 36.2732 38.1818H3.81913C2.76676 38.1818 1.9101 37.3659 1.9101 36.3637V14.5458C1.9101 13.5436 2.76676 12.7277 3.81913 12.7277H36.2732C37.3255 12.7277 38.1822 13.5436 38.1822 14.5458V20.0003H32.455C29.2968 20.0003 26.7278 22.447 26.7278 25.4547C26.7278 28.4625 29.2968 30.9092 32.455 30.9092H38.1822V36.3637ZM40.0913 28.182C40.0913 28.6835 39.6635 29.0911 39.1368 29.0911H32.455C30.3493 29.0911 28.6369 27.4603 28.6369 25.4547C28.6369 23.4493 30.3492 21.8184 32.455 21.8184H39.1368C39.6634 21.8184 40.0913 22.2259 40.0913 22.7275V28.182Z" fill="#66C3D0"/>
<path d="M32.4549 23.6366C31.4026 23.6366 30.5459 24.4526 30.5459 25.455C30.5459 26.4574 31.4026 27.2734 32.4549 27.2734C33.5073 27.2734 34.364 26.4574 34.364 25.455C34.364 24.4526 33.5074 23.6366 32.4549 23.6366Z" fill="#66C3D0"/>
</g>
<defs>
<clipPath id="clip0">
<rect width="42" height="40" fill="white"/>
</clipPath>
</defs>
</svg>
